<svg width="20" height="20" viewBox="0 0 20 20" fill="none" xmlns="http://www.w3.org/2000/svg">
<g clip-path="url(#clip0)">
<path d="M14.799 11.4923C14.76 11.4736 13.302 10.7556 13.0429 10.6623C12.9371 10.6243 12.8238 10.5873 12.7033 10.5873C12.5064 10.5873 12.341 10.6854 12.2122 10.8781C12.0665 11.0946 11.6256 11.61 11.4894 11.764C11.4716 11.7843 11.4473 11.8086 11.4328 11.8086C11.4197 11.8086 11.1941 11.7156 11.1257 11.686C9.56165 11.0066 8.37444 9.37272 8.21165 9.0972C8.1884 9.05759 8.18743 9.03961 8.18723 9.03961C8.19295 9.01863 8.24555 8.96591 8.27269 8.9387C8.3521 8.86013 8.43814 8.75655 8.52139 8.65636C8.56081 8.60889 8.60029 8.56136 8.63905 8.51655C8.75983 8.37604 8.8136 8.26694 8.87594 8.14058L8.9086 8.07493C9.06081 7.77253 8.93081 7.51734 8.88879 7.43493C8.85431 7.36597 8.23866 5.88013 8.17321 5.72402C8.01581 5.34734 7.80782 5.17195 7.51879 5.17195C7.49198 5.17195 7.51879 5.17195 7.40633 5.17669C7.26938 5.18247 6.5236 5.28065 6.19386 5.48851C5.84418 5.70896 5.25262 6.41169 5.25262 7.64753C5.25262 8.7598 5.95847 9.81 6.26152 10.2094C6.26905 10.2195 6.28288 10.2399 6.30295 10.2693C7.46353 11.9642 8.91035 13.2203 10.377 13.8062C11.7891 14.3703 12.4577 14.4354 12.8378 14.4354C12.8379 14.4354 12.8379 14.4354 12.8379 14.4354C12.9976 14.4354 13.1255 14.4229 13.2383 14.4118L13.3098 14.405C13.7976 14.3617 14.8696 13.8063 15.1134 13.1287C15.3055 12.595 15.3561 12.0119 15.2283 11.8003C15.1408 11.6564 14.99 11.584 14.799 11.4923Z" fill="#212121"/>
<path d="M10.1778 0C4.76114 0 0.354385 4.37364 0.354385 9.74955C0.354385 11.4883 0.81971 13.1903 1.7012 14.6799L0.0139953 19.6569C-0.0174333 19.7497 0.00594335 19.8523 0.0745798 19.9221C0.124125 19.9727 0.191333 20 0.25997 20C0.286268 20 0.312762 19.996 0.338606 19.9878L5.52822 18.3387C6.94835 19.0975 8.55342 19.498 10.1778 19.498C15.5939 19.4981 20.0002 15.1249 20.0002 9.74955C20.0002 4.37364 15.5939 0 10.1778 0ZM10.1778 17.4671C8.64926 17.4671 7.16881 17.0258 5.89621 16.1907C5.85342 16.1626 5.80374 16.1482 5.75374 16.1482C5.72731 16.1482 5.70082 16.1522 5.67504 16.1604L3.07536 16.9868L3.91458 14.5108C3.94173 14.4307 3.92815 14.3423 3.87815 14.274C2.90906 12.9499 2.39679 11.3854 2.39679 9.74955C2.39679 5.49351 5.88731 2.03091 10.1777 2.03091C14.4676 2.03091 17.9577 5.49351 17.9577 9.74955C17.9578 14.0051 14.4677 17.4671 10.1778 17.4671Z" fill="#212121"/>
</g>
<defs>
<clipPath id="clip0">
<rect width="20" height="20" fill="white"/>
</clipPath>
</defs>
</svg>
